<svg viewBox="0 0 65 53" fill="none" xmlns="http://www.w3.org/2000/svg"><path d="M32.5 0a14.18 14.18 0 0 0-14.18 14.2c0 6.52 4.38 12 10.37 13.67.12.03.22.1.28.21l3.53 6.11 3.53-6.1a.44.44 0 0 1 .28-.22 14.18 14.18 0 0 0-3.81-27.87Zm0 4.21a10.04 10.04 0 1 1-.02 20.08 10.04 10.04 0 0 1 .02-20.08Zm-2.61 2.78a.43.43 0 0 0-.12.82c.34.16.53.33.63.46.1.12.12.2.12.3 0 .22-.19.6-.45 1s-.58.84-.6 1.42c-.02.29.07.6.27.86.2.27.5.5.9.7a.43.43 0 1 0 .4-.76 1.76 1.76 0 0 1-.62-.45.43.43 0 0 1-.1-.32c0-.22.2-.58.47-1 .26-.4.59-.86.6-1.44 0-.29-.11-.6-.32-.86a2.64 2.64 0 0 0-.93-.68.43.43 0 0 0-.2-.05h-.05Zm2.3.73a.43.43 0 0 0-.25.72c.27.3.28.45.26.62-.03.17-.16.4-.32.67s-.37.6-.39 1.04c-.01.43.2.9.65 1.34a.43.43 0 1 0 .6-.61c-.35-.34-.4-.54-.39-.7.01-.17.1-.37.26-.62.15-.26.36-.57.42-.98.07-.4-.06-.9-.45-1.33a.43.43 0 0 0-.35-.15h-.03Zm-5.34 5.75a.43.43 0 0 0-.34.4s0 .76.05 1.68c.06.93.18 2.01.52 2.8a8.5 8.5 0 0 0 1.86 2.42c.08.08.2.13.3.13h3.9a.4.4 0 0 0 .3-.13 9.24 9.24 0 0 0 1.74-2.16l.46-.06a3.74 3.74 0 0 0 2.43-1.37c.22-.29.44-.65.52-1.08.09-.43 0-.95-.38-1.36-.23-.25-.53-.33-.83-.4-.3-.07-.62-.1-.92-.1a3.72 3.72 0 0 0-.58 0v-.36a.43.43 0 0 0-.43-.41h-8.6Zm9.01 1.61h.56c.27.01.56.04.78.09.22.04.36.14.38.15.2.23.22.4.18.62-.05.23-.2.5-.37.73-.2.27-.73.66-1.22.88-.1.04-.4.11-.65.15a11.43 11.43 0 0 0 .34-2.62Z" fill="#E09446"/><path d="m10.06 41.6-1.17.49c-.1-.3-.22-.57-.37-.81a2.43 2.43 0 0 0-1.27-1.04 2.5 2.5 0 0 0-.88-.15 2.54 2.54 0 0 0-1.7.62c-.23.2-.43.43-.6.69a4.48 4.48 0 0 0-.67 1.74 5.38 5.38 0 0 0 .08 2.35c.11.48.3.9.53 1.28a2.69 2.69 0 0 0 3.89.72c.22-.17.4-.37.56-.6.16-.23.29-.49.39-.75l1.18.47a3.71 3.71 0 0 1-1.74 1.95 5.45 5.45 0 0 1-5.2-.04 5.06 5.06 0 0 1-2.36-5.84 5.24 5.24 0 0 1 1.31-2.28 5.06 5.06 0 0 1 3.68-1.48 5.57 5.57 0 0 1 2.61.67 3.97 3.97 0 0 1 1.73 2Zm11.51 2.69v.13a9.26 9.26 0 0 1-.88 3.64 9.8 9.8 0 0 1-2.11 3.03l-1.02-.59a10.12 10.12 0 0 0 1.05-2.94 15.5 15.5 0 0 0 .34-3.97 8.56 8.56 0 0 0-.22-1.9c-.08-.31-.2-.59-.35-.83a1.67 1.67 0 0 0-1.48-.8 1.73 1.73 0 0 0-1.39.6c-.15.17-.27.38-.37.62a4.8 4.8 0 0 0-.32 1.54l-.02.75v1.91h2.95v1.13h-2.95v2.39h-2.71v-5c0-.72.1-1.38.34-2a4.43 4.43 0 0 1 2.47-2.67 4.8 4.8 0 0 1 4.5.4 4.87 4.87 0 0 1 1.63 1.96 5.84 5.84 0 0 1 .54 2.6Zm5.05 4.71h-2.72v-9.84h7.07v1.25h-4.35v3.05h3.36v1.25h-3.36v4.29Zm13.4 0h-7.07v-9.84h7.07v1.25h-4.35v3.05h3.36v1.25h-3.36v3.03h4.35v1.26Zm3.5 0h-1.26v-9.84h1.77l5.98 6.76v-6.76h1.25v9.84h-1.76l-5.98-6.75v6.75Zm19.9-4.71v.13a9.26 9.26 0 0 1-.88 3.64 9.78 9.78 0 0 1-2.11 3.03l-1.02-.59a10.15 10.15 0 0 0 1.05-2.94 15.5 15.5 0 0 0 .34-3.97 8.53 8.53 0 0 0-.22-1.9c-.08-.31-.2-.59-.35-.83a1.67 1.67 0 0 0-1.48-.8 1.73 1.73 0 0 0-1.39.6 2 2 0 0 0-.37.62 4.8 4.8 0 0 0-.32 1.54c-.02.26-.02.52-.02.75v1.91h2.94v1.13h-2.94v2.39h-2.72v-5c0-.72.12-1.38.34-2a4.43 4.43 0 0 1 2.47-2.67 4.8 4.8 0 0 1 4.5.4 4.88 4.88 0 0 1 1.63 1.96 5.84 5.84 0 0 1 .55 2.6Z" fill="#000"/></svg>