<svg viewBox="0 0 16 16" fill="none" xmlns="http://www.w3.org/2000/svg"><path d="M12.82 15.06a.23.23 0 0 0 .21-.28l-1.08-5.21 3.98-3.59c.07-.06.1-.16.06-.24a.24.24 0 0 0-.2-.16l-5.35-.6-2.22-4.84a.24.24 0 0 0-.44 0l-2.22 4.84-5.36.6a.24.24 0 0 0-.2.16c-.02.08 0 .18.07.24l3.98 3.59-1.09 5.21c-.01.1.02.19.1.24.07.05.17.06.25.02l4.69-2.64 4.69 2.63c.04.03.09.04.13.03Zm-.36-.69-4.34-2.44a.24.24 0 0 0-.24 0l-4.35 2.44 1.01-4.84a.23.23 0 0 0-.07-.22l-3.7-3.33 4.97-.55c.09 0 .16-.06.2-.13l2.06-4.5 2.06 4.5c.04.07.11.12.2.13l4.97.55-3.7 3.33a.23.23 0 0 0-.07.22l1 4.84Z" fill="#EAB665"/></svg>